<?xml version="1.0" encoding="utf-8"?>
<!-- Generator: Adobe Illustrator 25.0.1, SVG Export Plug-In . SVG Version: 6.00 Build 0)  -->
<svg version="1.1" id="Layer_1" xmlns="http://www.w3.org/2000/svg" xmlns:xlink="http://www.w3.org/1999/xlink" x="0px" y="0px"
	 viewBox="0 0 800 800" style="enable-background:new 0 0 800 800;" xml:space="preserve">
<style type="text/css">
	.st0{fill:#FF177C;}
</style>
<g>
	
		<image style="overflow:visible;opacity:0.5;" width="628" height="586" xlink:href="1137A150.png"  transform="matrix(1 0 0 1 88 109)">
	</image>
	<g>
		<g>
			<path class="st0" d="M349.7,620.6c-14-23.9-44.5-42.9-80.8-65.1c-71.7-45.4-164.1-103.1-164.1-233.3
				c0-110.5,77.5-196.2,179.7-196.2c51.1,0,76.7,15.7,95.6,32.2c0.8,1.6,1.6,2.5,1.6,4.1c0,2.5-2.5,4.9-5,4.9
				c-1.6,0-2.5-0.8-3.3-0.8c-19-16.5-41.2-30.5-89.1-30.5c-96.5,0-169.9,80-169.9,186.3c0,125.3,87.4,179.7,159.9,225.1
				c35.5,22.3,68.4,42.9,83.3,68.4c0.8,0.8,0.8,1.7,0.8,2.5c0,2.5-2.5,5-5,5C352.2,623,350.5,622.2,349.7,620.6z M350.5,669.2
				c0-2.5,1.6-4.1,3.3-5c215.2-89,331.5-212.7,331.5-354.5c0-7.4,0-14.8-0.8-21.4c-6.6-80.8-68.4-134.4-154.2-134.4
				c-105.5,0-173.1,74.2-173.1,192.1c0,11.5,0.8,23.9,2.5,37.1v0.8c0,2.5-2.5,5-5,5c-2.5,0-5-1.6-5-4.1c-1.6-13.2-2.5-25.6-2.5-38.8
				c0-122,71.7-202,183-202c90.7,0,156.7,57.7,164.1,142.6c0.8,8.3,0.8,15.7,0.8,23.1c0,145.9-117.9,272.9-338,363.6
				c0,0.8-0.8,0.8-1.6,0.8C353,674.2,350.5,671.7,350.5,669.2z"/>
		</g>
	</g>
</g>
</svg>
