<?xml version="1.0" encoding="utf-8"?>
<!-- Generator: Adobe Illustrator 25.0.0, SVG Export Plug-In . SVG Version: 6.00 Build 0)  -->
<svg version="1.1" id="Camada_1" xmlns="http://www.w3.org/2000/svg" xmlns:xlink="http://www.w3.org/1999/xlink" x="0px" y="0px"
	 viewBox="0 0 1172.1 482.6" style="enable-background:new 0 0 1172.1 482.6;" xml:space="preserve">
<style type="text/css">
	.st0{fill:#323232;}
</style>
<path class="st0" d="M767.1,166.4v149.9h-23.2V166.4H767.1 M770,163.5h-29v155.7h29V163.5z"/>
<path class="st0" d="M914.2,166.4v149.9h-20.5l-1.2-149.9L914.2,166.4 M838.6,166.4l48.6,149.9h-15.9l-48.6-149.9H838.6
	 M816.2,166.4l1,149.9h-21.9V166.4L816.2,166.4 M917.2,163.5h-27.6l1.3,153.2h-0.4l-49.7-153.2h-48.4v155.7h27.8L819.1,166h0.4
	l49.7,153.2h48L917.2,163.5L917.2,163.5z"/>
<path class="st0" d="M1030.4,166.4l-64.2,69.4l-1.9,2l1.9,2l72.8,76.6h-27.9l-71.2-78.2l64.9-71.8L1030.4,166.4 M1037.1,163.5h-33.7
	l-67.6,74.7l73.9,81.1h36l-77.4-81.5L1037.1,163.5L1037.1,163.5z"/>
<path class="st0" d="M709.2,281.5h-66.5l-10.7,37.7h-29l48.4-155.8h51.4l48.2,155.8h-31L709.2,281.5z M702.9,259l-26.5-93h-0.4
	l-26.7,93H702.9z"/>
<path class="st0" d="M474.5,163.4v155.8h-48L376.8,166h-0.4l1,153.3h-27.7V163.4h48.4l49.7,153.3h0.4l-1.3-153.3H474.5z"/>
<path class="st0" d="M620,296.7v22.5H489.2v-51.8l122.5-81.1V186H492.2v-22.6h122.3v51.8l-122.5,81v0.4H620z"/>
<polygon class="st0" points="314.6,163.4 266.1,319.2 295.2,319.2 340.1,163.4 "/>
<path class="st0" d="M238.4,259.6c0,0,1.7,38.5-33.5,38.5s-41.7-36.8-41.7-56.8s6.4-56.8,41.7-56.8s33.5,37.9,33.5,37.9l27.8-5
	c0,0,2.5-56-61.3-56s-71.8,54.4-71.8,80s9.6,80,71.8,80s61.3-56.6,61.3-56.6L238.4,259.6z"/>
</svg>
