<svg id="Camada_1" data-name="Camada 1" xmlns="http://www.w3.org/2000/svg" viewBox="0 0 883.99 482.64"><defs><style>.cls-1{fill:#2e2e2e;}</style></defs><path class="cls-1" d="M702.68,164.12H651.31L609.89,297.39H492V297l122.52-81.06V164.12H492.16v22.53H611.74v.42L489.21,268.12v51.8H631.94l10.73-37.69H709.2l10.74,37.69h30.95ZM649.2,259.7l26.74-93h.42l26.53,93Z"/><polygon class="cls-1" points="448.2 317.39 447.77 317.39 398.09 164.12 349.67 164.12 349.67 319.92 377.46 319.92 376.41 166.65 376.83 166.65 426.51 319.92 474.51 319.92 474.51 164.12 446.93 164.12 448.2 317.39"/><polygon class="cls-1" points="266.15 319.9 295.18 319.9 340.15 164.12 314.56 164.13 266.15 319.9"/><path class="cls-1" d="M266.22,265.39l-27.79-5.05s1.66,38.52-33.53,38.52S163.22,262.05,163.22,242s6.36-56.84,41.68-56.84,33.53,37.89,33.53,37.89l27.79-5s2.48-56-61.32-56-71.79,54.38-71.79,80,9.56,80,71.79,80S266.22,265.39,266.22,265.39Z"/></svg>