<?xml version="1.0" encoding="utf-8"?>
<!-- Generator: Adobe Illustrator 25.0.1, SVG Export Plug-In . SVG Version: 6.00 Build 0)  -->
<svg version="1.1" id="Layer_1" xmlns="http://www.w3.org/2000/svg" xmlns:xlink="http://www.w3.org/1999/xlink" x="0px" y="0px"
	 viewBox="0 0 437 100.6" style="enable-background:new 0 0 437 100.6;" xml:space="preserve">
<style type="text/css">
	.st0{fill:#E1E1E1;}
</style>
<g id="Camada_2">
	
		<image style="overflow:visible;opacity:0.2;" width="468" height="131" xlink:href="6C9C234.png"  transform="matrix(1 0 0 1 -8 -8.36)">
	</image>
	<g>
		<g>
			<g id="Camada_1-2_9_">
				<path class="st0" d="M51.7,1.2c5.6,0,10,1.8,13.3,5.3c3.3,3.5,5,8.7,5,15.5c0,6.6-1.6,14.4-4.8,23.2l-6.3,17.3
					C54.2,75.6,48.4,85,41.7,90.8c-6.6,5.7-15.1,8.8-23.9,8.7H0L35.7,1.2H51.7z M23.3,84.1h1.6c5.1,0,8.7-2.9,10.8-8.7l18-49.8
					c0.6-1.4,0.9-2.9,0.9-4.4c0.1-1.4-0.4-2.7-1.2-3.7c-1-1-2.3-1.5-3.6-1.4h-1.6L23.3,84.1z"/>
				<path class="st0" d="M103.8,1.2L68.1,99.4H49.7L85.4,1.2H103.8z"/>
				<path class="st0" d="M85.3,65.7h16.8c0.5,1,0.7,2.8,0.7,5.5v9.1c-0.1,1.6,0.4,3.2,1.2,4.5c0.7,1.1,2,1.8,3.3,1.7
					c1.4,0.1,2.6-0.6,3.4-1.7c0.9-1.3,1.3-2.8,1.2-4.4v-1.8c-0.1-3.3-1-6.6-2.7-9.4c-2.3-4.1-5-8-7.9-11.7l-3.6-4.7
					c-3.7-4.5-6.7-9.5-9.1-14.8c-1.8-4.5-2.7-9.3-2.6-14.2c0-7.1,2-12.9,6-17.3S101.6,0,108.5,0c6.9,0,12.3,2.3,16.1,6.8
					c3.8,4.5,5.7,10.7,5.7,18.6c-0.1,2.4,0.2,4.8,0.7,7.1v1.2h-16.6c-0.5-1.8-0.8-3.7-0.7-5.5V20c0.1-1.5-0.3-3.1-1.2-4.4
					c-0.8-1-1.9-1.6-3.2-1.5c-1.3,0-2.6,0.6-3.4,1.6c-1,1.3-1.5,2.9-1.3,4.5v1.8c0,2.8,0.8,5.6,2.2,8.1c2.1,3.5,4.4,6.9,7.1,10.1
					l3.7,4.7c3.9,4.8,7.2,10,9.9,15.6c2.1,4.9,3.2,10.2,3.1,15.6c0,7.5-2,13.5-5.9,17.9c-3.9,4.4-9.3,6.6-16,6.6
					c-7.4,0-13.1-2.3-16.9-6.9C87.9,89.1,86,82.4,86,73.8c0.1-2.3-0.2-4.6-0.7-6.9L85.3,65.7z"/>
				<path class="st0" d="M174.6,1.2v16h-12.3v82.2H144V17.2h-12.3v-16H174.6z"/>
				<path class="st0" d="M233.7,1.2l-26.3,98.2H190l6.4-23.3h-6.9l-10.6,23.3h-16.6v-1.2l44.3-96.9L233.7,1.2z M202,60.1l9.6-33.8
					h-1.2l-15,33.8H202z"/>
				<path class="st0" d="M262.1,1.2l-7.5,49.1h1.2L272,1.2h17.2l-35.8,98.2h-16l7.4-49.1h-1.2l-16,49.1h-17.1l35.7-98.2H262.1z"/>
				<path class="st0" d="M278.3,11.1C282.6,3.7,288.9,0,297.1,0c7.3,0,12.8,2.7,16.8,8s5.9,12.7,5.8,22c-0.1,2.3,0.1,4.5,0.6,6.8V38
					h-18.4c-0.5-1.8-0.7-3.7-0.6-5.5V20.4c0.1-1.5-0.3-2.9-1.1-4.2c-0.8-1-2-1.6-3.3-1.5c-1.4-0.1-2.7,0.6-3.5,1.7
					c-0.9,1.4-1.4,3-1.3,4.6v58c-0.1,1.6,0.4,3.3,1.3,4.6c0.8,1.1,2.1,1.7,3.5,1.7c1.3,0.1,2.5-0.5,3.3-1.5c0.8-1.2,1.2-2.7,1.1-4.1
					V67.5c-0.1-1.9,0.2-3.7,0.6-5.5h18.4v1.2c-0.5,2.4-0.7,4.9-0.6,7.4c0,9.3-1.9,16.7-5.8,22c-3.9,5.3-9.5,8-16.8,8
					c-8.3,0-14.5-3.7-18.8-11c-4.3-7.3-6.4-19.2-6.4-35.6v-7.4C271.8,30.3,274,18.4,278.3,11.1z"/>
				<path class="st0" d="M342.2,1.2v98.2h-18.4V1.2H342.2z"/>
				<path class="st0" d="M381.4,1.2l9.2,97v1.2h-17.2l-2.1-23.3h-6.9l-2.1,23.3h-17.2v-1.3l9.2-96.9L381.4,1.2z M371.2,60.1
					l-2.7-33.8h-1.2l-2.7,33.8H371.2z"/>
				<path class="st0" d="M391.3,65.7h16.8c0.5,1,0.7,2.8,0.7,5.5v9.1c-0.1,1.6,0.3,3.2,1.2,4.5c0.7,1.1,2,1.8,3.3,1.7
					c1.4,0.1,2.6-0.6,3.4-1.7c0.9-1.3,1.3-2.8,1.3-4.4v-1.8c-0.1-3.3-1-6.6-2.7-9.4c-2.3-4.1-5-8-7.9-11.7l-3.6-4.7
					c-3.7-4.5-6.7-9.5-9.1-14.8c-1.8-4.5-2.7-9.3-2.6-14.2c0-7.1,2-12.9,6-17.3S407.6,0,414.4,0c7,0,12.3,2.3,16.1,6.8
					c3.8,4.5,5.7,10.7,5.7,18.6c-0.1,2.4,0.2,4.8,0.7,7.1v1.2h-16.6c-0.5-1.8-0.8-3.7-0.7-5.5V20c0.1-1.5-0.3-3.1-1.2-4.4
					c-0.8-1-1.9-1.6-3.2-1.5c-1.3,0-2.6,0.6-3.4,1.6c-1,1.3-1.5,2.9-1.4,4.5v1.8c0,2.8,0.8,5.6,2.1,8.1c2.1,3.5,4.4,6.9,7.1,10.1
					l3.7,4.7c3.9,4.8,7.2,10,9.9,15.6c2.1,4.9,3.2,10.2,3.1,15.6c0,7.5-2,13.5-5.9,17.9c-3.9,4.4-9.2,6.6-16,6.6
					c-7.5,0-13.1-2.3-16.9-6.9c-3.8-4.6-5.7-11.3-5.7-19.9c0.1-2.3-0.1-4.6-0.7-6.9L391.3,65.7z"/>
			</g>
		</g>
	</g>
</g>
</svg>
