<?xml version="1.0" encoding="utf-8"?>
<!-- Generator: Adobe Illustrator 25.0.1, SVG Export Plug-In . SVG Version: 6.00 Build 0)  -->
<svg version="1.1" id="Layer_1" xmlns="http://www.w3.org/2000/svg" xmlns:xlink="http://www.w3.org/1999/xlink" x="0px" y="0px"
	 viewBox="0 0 498 100.6" style="enable-background:new 0 0 498 100.6;" xml:space="preserve">
<style type="text/css">
	.st0{fill:#E1E1E1;}
</style>
<g id="Camada_2">
	
		<image style="overflow:visible;opacity:0.2;" width="529" height="132" xlink:href="D614D3CA.png"  transform="matrix(1 0 0 1 -8 -8.36)">
	</image>
	<g>
		<g>
			<g id="Camada_1-2_9_">
				<path class="st0" d="M0,1.2h33.1v16H18.4v24.5h12.9v16H18.4v25.7h14.7v16H0V1.2z"/>
				<path class="st0" d="M53,1.2l10.5,49.1h1.2L62.8,1.2H80v98.2H64L53.6,50.3h-1.2l1.8,49.1H37.1V1.2H53z"/>
				<path class="st0" d="M129,0c5.2,0,9.3,1.5,12.1,4.6s4.3,7.3,4.3,12.6c-0.1,5-1.2,10-3,14.7c-1,2.6-1.6,5.3-1.7,8h-18.6
					c0-1.9,0.4-3.8,1.1-5.5l5-14c0.2-0.8,0.4-1.5,0.5-2.3c0-0.9-0.3-1.7-0.9-2.4c-0.7-0.7-1.6-1-2.6-0.9c-2.9,0-5.1,2.1-6.6,6.3
					l-21,57.7c-0.4,0.9-0.6,1.9-0.6,2.9c-0.1,1,0.3,2,1,2.7c0.8,0.7,1.7,1,2.8,1c2.4,0,4.3-1.6,5.5-4.9l4-11
					c0.9-2.7,1.9-4.5,3.1-5.5h17.8v1.2c-0.9,1.2-1.6,2.5-2.1,3.9c-0.6,1.6-0.9,2.5-1.1,2.8c-7,19.2-17.1,28.8-30.3,28.8
					c-4.5,0.1-8.9-1.8-11.8-5.2c-3.2-3.5-4.7-8.7-4.7-15.7c0-7.4,2-16.6,6-27.6l3.2-8.6C101.1,14.5,114,0,129,0z"/>
				<path class="st0" d="M182,1.2v73.6c0,8-2,14.3-6.1,18.9c-4,4.6-9.6,6.9-16.6,6.9c-7,0-12.6-2.3-16.6-6.9
					c-4-4.6-6.1-10.9-6.1-18.9V1.2H155v78.4c0,4.2,1.4,6.3,4.3,6.3s4.3-2.1,4.3-6.3V1.2H182z"/>
				<path class="st0" d="M205.1,1.2c4.9-0.1,9.7,1.1,14,3.6c4.1,2.4,7.5,6,9.7,10.2c2.5,5,3.7,10.5,3.6,16c0,5.9-0.8,10.8-2.5,14.7
					c-1.9,4.2-4.6,8-7.9,11.1l9.2,41.4v1.2h-17.8l-7-36.8h-1.8l0.9,36.8h-18.4V1.2H205.1z M205.3,49.1h0.6c2.2,0,4.3-0.9,5.7-2.6
					c1.5-1.7,2.3-4.1,2.3-7.2V25.8c0-3.1-0.8-5.5-2.3-7.2c-1.4-1.7-3.5-2.6-5.7-2.5h-0.6L205.3,49.1z"/>
				<path class="st0" d="M274.8,1.2v16h-12.3v82.2h-18.4V17.2h-12.3v-16H274.8z"/>
				<path class="st0" d="M333.8,1.2l-26.3,98.2h-17.4l6.4-23.3h-6.9l-10.6,23.3h-16.6v-1.2l44.3-96.9L333.8,1.2z M302.1,60.1
					l9.6-33.8h-1.2l-15,33.8H302.1z"/>
				<path class="st0" d="M365.6,1.2L354.3,54h1.2l27.2-52.8H404l-35.7,98.2h-16L370,54h-1.2l-23.2,45.4h-12.2L343,54h-1.2
					l-15.2,45.4h-16l35.7-98.2H365.6z"/>
				<path class="st0" d="M392.8,43.6c5.2-14,10.9-24.8,17.3-32.3S423.4,0,430.9,0c4.5-0.1,8.9,1.8,11.8,5.3
					c3.1,3.5,4.7,8.8,4.7,15.8c0,7.6-2,16.7-5.9,27.4l-3.2,8.6c-5.1,14-10.9,24.8-17.3,32.3s-13.3,11.3-20.7,11.3
					c-4.5,0.1-8.9-1.8-11.9-5.2c-3.2-3.5-4.7-8.7-4.7-15.7c0-7.4,2-16.6,6-27.6L392.8,43.6z M400.2,78.7c-0.4,0.9-0.6,1.9-0.6,2.9
					c-0.1,1,0.3,2,1,2.7c0.8,0.7,1.7,1,2.8,1c2.8,0,4.9-2.1,6.5-6.3l21-57.7c0.4-0.9,0.6-1.9,0.6-2.9c0.1-1-0.3-2-1-2.7
					c-0.8-0.7-1.7-1-2.8-1c-2.8,0-5,2.1-6.5,6.3L400.2,78.7z"/>
				<path class="st0" d="M453.6,66.9c0,1.7-0.3,3.3-0.9,4.9l-2.8,7.8c-0.4,1-0.6,2-0.6,3.1c-0.1,1,0.2,2,0.9,2.8
					c0.6,0.7,1.5,1.1,2.5,1c2.7,0,4.8-1.9,6.3-5.8c0.9-2.3,1.3-4.7,1.4-7.1c0-2.4-0.3-4.7-0.8-7c-0.5-2.6-1.4-6-2.5-10.1l-1-3.7
					c-2.2-8.4-3.3-15.3-3.3-20.5c-0.1-4.1,0.6-8.3,2-12.1c2.4-6.8,6-11.8,10.6-15.2c4.9-3.4,10.7-5.2,16.6-5c5.1,0,9,1.6,11.9,4.7
					c2.9,3.1,4.3,7.2,4.3,12.4c-0.1,3.8-0.8,7.5-2.1,11c-0.5,1.3-0.9,2.6-1.2,3.7c-0.3,1-0.5,2.1-0.5,3.2H478c0-2.1,0.4-4.2,1.1-6.1
					l3.2-8.8c0.3-0.8,0.5-1.7,0.5-2.6c0.1-0.9-0.3-1.8-0.9-2.5c-0.7-0.6-1.5-0.9-2.4-0.9c-1.5-0.1-3,0.6-4,1.7
					c-1.2,1.5-2.2,3.2-2.8,5.1c-0.8,2.3-1.1,4.6-1.1,7c0,4.2,0.9,9.5,2.7,16l1,3.7c1.3,4.8,2.3,8.8,2.9,12.1
					c0.6,3.1,0.9,6.3,0.9,9.5c0,4.1-0.7,8.2-2.1,12c-2.4,6.7-5.9,11.6-10.5,14.8c-4.6,3.2-10.1,4.8-15.8,4.7
					c-5.3,0-9.5-1.5-12.6-4.5c-3.1-3-4.6-7.1-4.6-12.1c0-3.4,0.7-6.8,1.8-10.1c0.9-2.2,1.5-4.6,1.8-7L453.6,66.9z"/>
			</g>
		</g>
	</g>
</g>
</svg>
