<?xml version="1.0" encoding="utf-8"?>
<!-- Generator: Adobe Illustrator 25.0.1, SVG Export Plug-In . SVG Version: 6.00 Build 0)  -->
<svg version="1.1" id="Layer_1" xmlns="http://www.w3.org/2000/svg" xmlns:xlink="http://www.w3.org/1999/xlink" x="0px" y="0px"
	 viewBox="0 0 800 800" style="enable-background:new 0 0 800 800;" xml:space="preserve">
<style type="text/css">
	.st0{fill:#FF1D79;}
	.st1{fill:#2E2E2E;}
</style>
<image style="overflow:visible;opacity:0.5;enable-background:new    ;" width="686" height="506" xlink:href="5817201D.png"  transform="matrix(1 0 0 1 59 149)">
</image>
<g>
	<g>
		<path class="st0" d="M190.2,168.8c12.3,0,22.3,4.1,30.1,12.3c7.7,8.2,11.6,19,11.6,32.6c0,9.3-1.9,19.4-5.8,30.3l-1.8,5
			c-7.2,19.3-17.4,33.7-30.6,43c-13.2,9.3-29.5,14-49,14l-26.9,73.8H78.2l76.7-210.9L190.2,168.8L190.2,168.8z M155.9,274.3h2.1
			c6.1,0,11.1-1.4,14.9-4.2c3.8-2.8,6.8-7.3,9.1-13.4l11.3-31.1c1.6-4.6,2.4-8.7,2.4-12.4c0-4-0.9-7.2-2.8-9.4
			c-1.8-2.2-4.6-3.3-8.3-3.3h-1.8L155.9,274.3z"/>
		<path class="st0" d="M298.5,168.8c11.2,0,20.6,3.8,27.9,11.3c7.4,7.6,11.1,18,11.1,31.4c0,9.8-2.2,20.8-6.6,32.9
			c-4,11.1-9.5,20.7-16.2,28.9c-6.8,8.2-15.4,15.7-26,22.5l-9.2,83.8h-38.7l13.4-77.8h-3.9l-26.6,77.8h-39.5l76.7-210.9h37.6V168.8z
			 M262.4,273h2.4c10.4,0,17.5-5.1,21.4-15.3l12.6-34c1.8-4.6,2.6-8.5,2.6-11.9c0-3.9-1-6.7-3.2-8.6c-2.1-1.8-4.7-2.8-7.9-2.8h-1.6
			L262.4,273z"/>
		<path class="st0" d="M437.2,168.8l-56.4,210.9h-37.4l13.7-50.1h-14.8l-22.7,50.1H284V377l95.1-208.2H437.2L437.2,168.8z
			 M369.2,295.4l20.6-72.5h-2.6L355,295.4H369.2z"/>
		<path class="st0" d="M396.8,349.4L502,201.8h-51.4l12.1-32.9h93.6l-11.1,30.3L440.1,346.7h51.4l-11.9,33H386L396.8,349.4z"/>
		<path class="st0" d="M565.5,168.8h71.2L624,203.1h-31.6l-19,52.7h27.7l-12.7,34.3h-27.7l-20,55.4h31.6L560,379.7h-71.2
			L565.5,168.8z"/>
		<path class="st0" d="M682.8,168.8c11.2,0,20.6,3.8,27.9,11.3c7.4,7.6,11.1,18,11.1,31.4c0,9.8-2.2,20.8-6.6,32.9
			c-4,11.1-9.5,20.7-16.2,28.9c-6.8,8.2-15.4,15.7-26,22.5l-9.2,83.8h-38.7l13.4-77.8h-4l-26.6,77.8h-39.5l76.7-210.9h37.7V168.8z
			 M646.7,273h2.4c10.4,0,17.5-5.1,21.3-15.3l12.7-34c1.8-4.6,2.6-8.5,2.6-11.9c0-3.9-1-6.7-3.2-8.6c-2.1-1.8-4.7-2.8-7.9-2.8H673
			L646.7,273z"/>
		<path class="st0" d="M718.7,337.5l-15,40.9l-30.3,43.5h-10v-2.6l21.6-39.5h-12l15.3-42.2L718.7,337.5L718.7,337.5z"/>
		<path class="st1" d="M151.2,459.8c0-14.9,3.4-26.1,10.1-33.6c6.8-7.5,15.2-11.2,25.4-11.2c13.7,0,26,5.2,36.9,15.5
			c10.9,10.4,20.1,25.4,27.7,45.1c0.2,0.5,0.9,2.5,2.2,5.8s2.9,6.2,4.9,8.7v2.6h-38.2c-2.5-2.5-4.7-6.4-6.6-11.9l-8.7-23.7
			c-2.6-7-6.6-10.5-11.9-10.5c-2.5,0-4.4,0.7-5.9,2.1s-2.2,3.3-2.2,5.8c0,1.6,0.4,3.7,1.3,6.3l45.1,123.9c3.3,9,8.1,13.4,14.2,13.4
			c2.5,0,4.3-0.7,5.5-2s1.8-3,1.8-5.1c0-0.9-0.4-2.5-1.1-5l-10.8-30c-1.6-4.2-2.4-8.2-2.4-11.9h40.1c0,4.2,1.2,9.8,3.7,16.6
			c4.2,11.8,6.3,22.6,6.3,32.4c0,11.8-3,21-9.1,27.8s-14.6,10.2-25.7,10.2c-32.2,0-59.8-31.2-83-93.6l-6.9-18.5
			C155.5,495.6,151.2,475.8,151.2,459.8z"/>
		<path class="st1" d="M279.9,417.7l76.7,210.9H317l-76.7-210.9L279.9,417.7L279.9,417.7z"/>
		<path class="st1" d="M324.6,417.7l60.9,105.4h2.6l-42.4-105.4h36.9l76.7,210.8H425l-60.6-105.4h-2.6L404,628.5h-36.9l-76.7-210.9
			L324.6,417.7L324.6,417.7z"/>
		<path class="st1" d="M485.4,417.7l11.1,30.3l1.3,147.6h52.5l11.9,33h-93.6l-10.8-30.3l-1.3-147.6H404l-12.1-33L485.4,417.7
			L485.4,417.7z"/>
		<path class="st1" d="M568.5,417.7l95.7,208.2v2.6h-35.6l-22.7-50.1h-14.8l13.7,50.1h-37.7l-56.7-210.9L568.5,417.7L568.5,417.7z
			 M593.2,544.2L561,471.7h-2.6l20.6,72.5H593.2z"/>
	</g>
</g>
</svg>
